<?xml version="1.0" encoding="UTF-8"?>
<svg width="400px" height="400px" viewBox="0 0 400 400" version="1.1" xmlns="http://www.w3.org/2000/svg" xmlns:xlink="http://www.w3.org/1999/xlink" style="background: #FFFFFF;">
    <!-- Generator: Sketch 45.2 (43514) - http://www.bohemiancoding.com/sketch -->
    <title>Mobile</title>
    <desc>Created with Sketch.</desc>
    <defs></defs>
    <g id="Page-1" stroke="none" stroke-width="1" fill="none" fill-rule="evenodd">
        <g id="Mobile" fill-rule="nonzero" fill="#000000">
            <g id="Group" transform="translate(83.649872, 40.273438)">
                <path d="M116.897761,0.462881059 C120.421525,1.00399554 123.974626,1.41146126 127.469052,2.1123023 C138.848755,4.39737006 149.224462,9.08811543 158.899328,15.4315418 C161.836341,17.35478 164.809211,19.2258626 167.827717,21.015452 C183.402687,30.2437357 191.548741,44.0975702 193.361149,61.9087117 C194.612883,74.220696 192.696165,86.2067076 189.566828,98.0623302 C189.335387,98.9391964 189.152843,99.8291016 188.973558,100.719007 C188.914883,101.005863 188.940961,101.312277 188.921402,101.709963 C196.930548,103.287671 198.769034,109.536565 199.388382,116.215743 C200.330442,126.425204 199.039591,136.452121 195.101842,145.983559 C194.127184,148.3436 192.360413,150.37115 191.050003,152.604062 C190.652317,153.282085 190.3785,154.132873 190.352422,154.911948 C189.89932,169.949063 187.87829,184.738438 183.500478,199.162725 C182.903949,201.131599 182.16725,203.061357 181.616357,205.04327 C181.479448,205.542008 181.613097,206.428654 181.961888,206.702471 C187.695745,211.168295 187.16767,220.654097 180.113623,224.216977 C179.960416,224.29521 179.839806,224.438638 179.396484,224.806987 C198.260517,228.858827 214.963351,237.61119 231.933484,246.05714 C231.232643,247.761976 230.505724,249.525488 229.690792,251.504141 C215.755465,245.424753 202.85021,237.360191 188.00216,233.57565 C188.425924,239.051989 186.111519,242.908245 180.948113,245.154196 C183.689542,248.453038 184.732655,252.074593 183.223402,256.139471 C181.707629,260.223908 178.539176,262.280795 174.246117,263.017493 C177.479765,266.775957 178.451163,270.863653 176.205212,275.231685 C173.763677,279.974586 169.587969,281.526216 164.245278,280.681947 C166.967149,285.28142 167.120356,289.633154 163.818254,293.727369 C161.093123,297.104445 157.230348,298.085623 152.044125,296.827368 C153.566417,301.550711 152.960108,305.814432 149.107112,309.044821 C145.283453,312.249131 141.03929,312.210014 136.632141,309.859752 C134.891448,314.485303 131.77515,317.435355 126.676939,317.533147 C121.679779,317.630938 118.403755,314.954703 116.428361,310.257439 C114.762641,315.401286 111.486617,318.413272 106.300393,318.43935 C100.566535,318.468688 97.1861998,315.11769 95.7714788,309.673948 C90.2397242,312.848921 86.0151196,312.85218 82.2468766,309.742402 C78.498192,306.645662 77.6245855,302.352604 79.6553946,296.540513 C74.7103906,298.326842 70.3227997,297.622742 67.0206975,293.48615 C63.8522441,289.515804 64.1162819,285.209706 66.7208028,280.750401 C61.2900996,281.461021 57.078534,279.873535 54.6402591,274.93505 C52.7496181,271.101613 53.3820049,267.659342 56.6678085,262.997934 C52.4627623,262.297093 49.2943088,260.207609 47.7850558,256.15903 C46.2921014,252.152827 47.2276427,248.531272 49.7571899,245.568181 C48.0034574,243.951357 45.9172329,242.634428 44.7111344,240.753566 C43.5017761,238.866185 43.1660244,236.414871 42.4228069,234.142842 C28.6374267,237.787215 16.1787548,245.659453 2.64763313,251.491103 C1.84248087,249.545046 1.1123023,247.781535 0.401682079,246.05714 C17.019764,237.800254 33.3835874,229.220656 52.0813744,224.979753 C51.1327942,224.399522 50.7057701,224.128964 50.2722266,223.871446 C44.7926276,220.6215 43.4300622,213.430544 47.4134471,208.446424 C48.1012492,207.585856 48.3098717,206.966508 47.7980947,205.903838 C42.813974,195.577026 40.8548788,184.510257 40.1214405,173.195749 C39.7302734,167.148958 39.7270137,161.076089 39.5118718,155.016259 C39.4955732,154.517521 39.3651842,153.862316 39.0326921,153.555902 C34.7233347,149.569257 32.9207063,144.3048 31.6070368,138.848019 C29.5208123,130.173889 28.5363752,121.411746 30.2770687,112.542032 C30.8931569,109.402916 32.0145026,106.371371 34.5962054,104.337302 C36.2032502,103.072529 38.2340593,102.34561 40.2811671,101.2699 C39.4923135,98.0329927 38.5143957,94.4212165 37.7418407,90.7638042 C35.0427878,77.9889389 34.1333243,65.1945153 37.5038807,52.383793 C40.5810619,40.6846373 47.0157605,31.2770687 56.7818989,24.1219707 C59.1712779,22.3714979 61.5085013,20.5330126 63.7479329,18.5999952 C75.7795807,8.22428811 89.6334152,2.15793846 105.495241,0.766035555 C105.902706,0.730178571 106.300393,0.567192283 106.701339,0.462881059 C110.101233,0.462881059 113.497868,0.462881059 116.897761,0.462881059 Z M152.637395,200.277551 C152.790602,200.52855 152.943809,200.776289 153.097016,201.027288 C154.260738,199.563671 155.391863,198.070717 156.594702,196.639697 C167.886392,183.17703 176.201952,167.970409 182.815936,151.779351 C183.790594,149.393232 184.892381,146.941918 185.228133,144.428669 C186.496166,134.965686 185.932234,125.554857 183.656945,116.264639 C182.225926,110.410171 181.93907,104.529626 183.171246,98.6001849 C184.439279,92.4947186 186.010467,86.4348884 186.887333,80.2740067 C188.051055,72.092095 188.393327,63.8580277 185.684495,55.8032454 C182.630132,46.7151299 178.418566,38.3767514 171.136338,31.8475207 C168.896907,29.8395297 166.494489,28.8322744 163.436866,28.9105078 C154.886606,29.1321692 146.333085,29.1745456 137.782824,29.2853763 C137.199334,29.2918957 136.615843,29.2853763 136.035611,29.2853763 C136.045391,29.1712859 136.05191,29.0539357 136.061689,28.9398453 C144.269679,27.4468909 152.480928,25.9506768 160.688917,24.4577224 C157.934449,23.1701307 155.574408,21.0187117 152.347279,21.6445791 C144.556535,23.1505724 136.733193,24.509878 128.981565,26.1951562 C122.38062,27.6294356 115.809013,28.4313281 109.009225,28.242264 C94.5816789,27.8478372 80.137834,27.9358498 65.7037683,27.7500454 C63.591466,27.7239676 62.0267977,28.3954711 60.5827392,29.9079839 C52.8669683,37.9758052 47.485161,47.4192307 43.658243,57.8438337 C41.9794842,62.4139692 41.2786432,67.0460395 41.4448892,71.9062907 C41.7415242,80.567382 43.2638162,89.0100717 45.5977798,97.3191127 C47.2765386,103.29745 47.5177583,109.298605 45.9530899,115.283461 C43.8766446,123.237192 43.6321652,131.197443 45.3467809,139.222887 C50.3211224,162.536446 61.3748525,182.600058 77.784312,199.788592 C78.2276347,200.251473 78.7100741,200.675238 79.4402527,201.369559 C79.5608626,200.150422 79.5869404,199.312672 79.7368878,198.497741 C80.5811567,193.921086 81.0472975,189.223821 82.4033434,184.803633 C85.8097569,173.701007 92.7627519,165.81899 104.162013,162.236551 C107.829204,161.082608 111.08893,161.30427 114.052021,163.778402 C115.232042,164.762839 116.128466,164.554216 117.204176,163.664311 C119.896709,161.434659 122.846761,161.079349 126.230356,162.073565 C138.121836,165.567991 145.586608,173.518462 149.24728,185.07093 C150.802169,190.009415 151.529088,195.202158 152.637395,200.277551 Z M142.881036,193.337595 C143.402592,185.093748 136.319208,172.794803 125.040556,169.655687 C123.459589,169.215624 122.26653,169.277559 120.874627,170.278295 C117.005332,173.06862 114.391032,173.016464 110.345713,170.395645 C110.039298,170.196802 109.768741,169.883868 109.436249,169.805635 C108.611539,169.606791 107.689036,169.228663 106.93278,169.424247 C100.573055,171.067148 95.7779982,174.819093 92.4693766,180.481236 C89.9235308,184.83623 88.5218487,189.585651 87.8112285,194.533914 C86.3802089,204.511935 91.5044978,210.99227 101.521635,211.960408 C102.255073,212.032122 103.109121,211.895214 103.761067,211.565981 C111.594188,207.595635 119.450127,207.559778 127.37452,211.275866 C127.935193,211.539904 128.642553,211.722448 129.239083,211.637695 C136.260533,210.653258 141.065368,206.060305 142.287765,199.110569 C142.620257,197.213409 142.688712,195.264093 142.881036,193.337595 Z M163.769358,256.625171 C163.495541,257.042415 163.296698,257.326012 163.120673,257.622647 C158.954743,264.689732 152.92751,269.520646 145.32583,272.473957 C138.816158,275.003504 132.01637,276.12485 125.099232,276.564913 C114.909329,277.213599 104.732465,277.236417 94.699029,274.918752 C83.0878858,272.239257 73.8433036,266.306556 68.2137572,255.467968 C68.1224849,255.291943 67.9790569,255.148515 67.8747457,255.008347 C66.8772696,256.791417 65.9580269,258.437578 65.0355246,260.086999 C72.542673,261.283319 77.1519252,268.881739 72.4937771,276.943041 C76.8292124,276.177006 80.5452997,277.19078 83.2802097,280.675427 C85.9923015,284.130737 86.1063919,287.973953 84.2450885,292.29635 C87.7721118,290.966382 90.8818901,290.992459 93.8743184,292.6484 C96.850448,294.294562 98.4477136,296.951238 99.2333076,300.318535 C102.232255,297.919377 105.433306,297.195717 108.95055,298.12148 C112.461275,299.047242 114.65181,301.501815 116.226258,304.999501 C117.39324,301.276894 119.443607,298.809282 122.775047,297.498872 C126.109746,296.185202 129.268421,296.876264 132.299966,298.457231 C134.86211,292.120324 138.213108,290.399189 146.284189,291.197822 C144.950961,287.308969 145.254116,283.654817 147.914052,280.434208 C150.616365,277.164703 154.254219,276.300875 158.602693,276.881107 C156.415417,273.256291 155.897121,269.791203 157.57262,266.195725 C159.241599,262.619806 162.214469,260.771542 166.145698,260.116337 C165.304689,258.880901 164.57777,257.811711 163.769358,256.625171 Z M163.449905,236.718025 C150.564209,250.861975 134.669786,257.736737 116.08283,258.453877 C96.9156425,259.193835 82.1425654,249.923174 68.8428842,237.216763 C69.2275319,239.63874 69.7197505,241.979223 70.3423581,244.283849 C73.9443551,257.612868 82.3511878,266.062077 95.9442443,268.930635 C100.429627,269.875956 105.042139,270.436629 109.622054,270.694147 C119.277361,271.235261 128.906591,270.814757 138.333718,268.373222 C153.106795,264.552824 163.264101,251.862711 163.449905,236.718025 Z M37.3832709,136.419523 C37.3376347,128.276728 38.5339541,120.28714 40.3919978,112.372526 C40.7244898,110.957805 40.734269,109.468111 40.8939955,108.014273 C40.6886328,107.890403 40.4865298,107.766534 40.2811671,107.642664 C39.4173398,108.395661 38.2992538,108.99871 37.7516199,109.934251 C36.9758052,111.26096 36.4118726,112.793031 36.1152376,114.308803 C34.6646596,121.750757 35.7664469,129.0884 37.3832709,136.419523 Z M188.302054,107.942559 C189.824346,116.903545 192.262621,125.545078 192.216985,134.548441 C192.927605,129.988084 193.576291,125.424468 193.556732,120.864112 C193.540434,117.656542 192.758099,114.422894 192.031181,111.267479 C191.672611,109.70933 190.662096,108.304389 188.302054,107.942559 Z M177.675348,230.889636 C175.334865,230.886376 173.398588,232.770497 173.343173,235.104461 C173.287757,237.484061 175.292489,239.534428 177.668829,239.537688 C179.973455,239.540948 181.948849,237.60793 182.007524,235.293525 C182.069459,232.910666 180.084286,230.892895 177.675348,230.889636 Z M59.728691,270.651771 C59.7710674,272.985734 61.7106043,274.905713 64.0282693,274.902453 C66.4046094,274.899193 68.4223796,272.835787 68.3604448,270.472486 C68.3017698,268.148301 66.3426746,266.231582 64.0282693,266.231582 C61.6258514,266.228323 59.6830548,268.226535 59.728691,270.651771 Z M171.263468,270.508343 C171.23739,268.141782 169.356528,266.251141 167.009526,266.231582 C164.594069,266.212024 162.670831,268.1646 162.693649,270.619173 C162.716467,272.979215 164.600588,274.882895 166.937812,274.905713 C169.343489,274.925271 171.292805,272.943358 171.263468,270.508343 Z M160.203218,286.982997 C160.160842,284.645773 158.234344,282.751873 155.890601,282.745353 C153.494703,282.738834 151.486712,284.769643 151.538867,287.142723 C151.594283,289.538622 153.618572,291.429263 156.053587,291.351029 C158.40059,291.279315 160.245595,289.336519 160.203218,286.982997 Z M88.7956657,306.003496 C91.2274211,306.026315 93.2093343,304.0607 93.1767371,301.661542 C93.1441398,299.324318 91.2339405,297.446716 88.8706393,297.433677 C86.4128061,297.417379 84.4797887,299.340617 84.5091263,301.769113 C84.5352041,304.119375 86.4193256,305.980678 88.7956657,306.003496 Z M57.5316358,248.254195 C55.1259582,248.237896 53.2287978,250.069862 53.1864214,252.452722 C53.144045,254.920334 55.057504,256.837053 57.5446747,256.817494 C59.9144954,256.797936 61.8409933,254.877958 61.8377336,252.534215 C61.8344739,250.183952 59.9079759,248.270493 57.5316358,248.254195 Z M146.743811,301.143245 C146.75033,298.815801 144.85317,296.863225 142.525725,296.80455 C140.152645,296.742616 138.095758,298.744087 138.085979,301.123687 C138.0762,303.480469 140.152645,305.524317 142.506167,305.475421 C144.820572,305.426525 146.737291,303.46743 146.743811,301.143245 Z M101.873685,308.125578 C101.883465,310.505178 103.734989,312.392559 106.088511,312.425156 C108.517007,312.461013 110.446764,310.531256 110.436985,308.076682 C110.427206,305.713381 108.562643,303.803182 106.2189,303.757545 C103.829521,303.711909 101.860647,305.687303 101.873685,308.125578 Z M79.4174346,287.100347 C79.4337333,284.671851 77.4746381,282.712756 75.062441,282.748613 C72.7317371,282.78447 70.8052392,284.710968 70.7856808,287.031893 C70.7628627,289.352817 72.6632828,291.302133 74.9972465,291.354289 C77.4615992,291.409704 79.4043957,289.541881 79.4174346,287.100347 Z M57.613129,235.166396 C57.6000901,232.832432 55.758345,230.902675 53.5384718,230.896155 C50.9763273,230.889636 49.0628683,232.695524 49.0335308,235.143578 C49.007453,237.575333 51.0121843,239.589844 53.4113425,239.534428 C55.758345,239.482273 57.6229082,237.542736 57.613129,235.166396 Z M126.526991,302.919796 C124.144132,302.887199 122.204595,304.722424 122.126362,307.088985 C122.044868,309.488143 124.04308,311.515693 126.478096,311.509173 C128.857695,311.499394 130.741817,309.615273 130.754856,307.229153 C130.764635,304.826735 128.92615,302.952393 126.526991,302.919796 Z M173.515938,256.820754 C175.921616,256.817494 177.7764,254.979009 177.795958,252.576591 C177.815517,250.102459 175.892278,248.202039 173.414887,248.250935 C171.018988,248.296571 169.203321,250.177433 169.229399,252.58963 C169.248957,254.992048 171.107001,256.824014 173.515938,256.820754 Z M178.796694,212.250524 C177.688387,214.584487 176.632236,216.81088 175.523929,219.151363 C179.412782,218.633067 180.905737,215.484172 178.796694,212.250524 Z M54.783687,219.001416 C53.6688608,217.114035 52.6453069,215.37986 51.5239613,213.47944 C50.813341,216.465349 51.9086089,218.320133 54.783687,219.001416 Z M62.9395209,239.537688 C62.1441478,240.681852 61.5052415,241.597835 60.81092,242.592051 C61.8181752,243.097309 62.7145998,243.547151 63.9304775,244.15672 C63.5784271,242.513818 63.2850518,241.151252 62.9395209,239.537688 Z" id="Shape"></path>
                <path d="M102.832045,96.2727408 C101.097871,97.9319412 99.3636966,99.5911416 97.5089126,101.367692 C92.7725311,96.7942969 87.1853611,93.3161695 80.2388855,92.6772632 C73.3967211,92.0481362 67.2130214,94.0952439 61.3552942,97.7754743 C59.8721189,95.8131194 58.421541,93.8931409 56.9807422,91.9894611 C67.0500351,81.1117562 92.880102,83.5598103 102.832045,96.2727408 Z" id="Shape"></path>
                <path d="M128.039504,96.1130142 C140.993654,82.1027129 160.196699,82.0896739 173.84843,91.872111 C172.401112,93.7888297 170.957054,95.7055485 169.408684,97.7591757 C163.590073,94.1473996 157.373776,92.0187986 150.479456,92.680523 C143.591656,93.3422473 138.020784,96.7128037 133.297442,101.361173 C131.511112,99.5781027 129.776938,97.8471883 128.039504,96.1130142 Z" id="Shape"></path>
                <path d="M136.156221,146.508375 C135.624886,148.571781 135.158745,150.374409 134.646968,152.353063 C130.275676,151.000277 126.885561,152.97893 123.603017,155.286816 C118.801441,158.663892 113.70323,159.116994 108.777785,155.981138 C104.217428,153.076722 99.6146955,151.355587 94.128577,152.946333 C93.558125,150.938342 93.0528675,149.148752 92.4824155,147.137502 C93.2191135,146.961476 93.8873573,146.749594 94.5718997,146.648543 C100.012382,145.85317 105.218164,146.280194 109.843715,149.660529 C113.602179,152.408478 117.27589,152.675776 121.158223,149.686607 C124.926466,146.782191 129.226044,145.279458 134.092815,146.065052 C134.738241,146.175882 135.373887,146.342129 136.156221,146.508375 Z" id="Shape"></path>
                <path d="M148.403011,119.169055 C145.136766,119.185353 142.496388,116.571053 142.502907,113.330886 C142.509427,110.113536 145.198701,107.463379 148.425829,107.492717 C151.600802,107.525314 154.169466,110.080939 154.221621,113.259172 C154.273777,116.512378 151.672516,119.152756 148.403011,119.169055 Z" id="Shape"></path>
                <path d="M81.5329967,119.165795 C78.2341542,119.182093 75.6752695,116.632988 75.6785292,113.330886 C75.6817889,110.061381 78.2895695,107.463379 81.552555,107.489457 C84.7047098,107.515535 87.3124904,110.103757 87.3679058,113.255912 C87.4168017,116.476521 84.7796835,119.149496 81.5329967,119.165795 Z" id="Shape"></path>
                <path d="M100.058018,193.745061 C110.674945,197.030864 121.053912,197.568719 131.403541,193.288699 C131.129724,197.285123 123.273785,203.165668 117.839822,203.954522 C111.20954,204.912881 102.548449,200.147162 100.058018,193.745061 Z" id="Shape"></path>
            </g>
        </g>
    </g>
</svg>