<?xml version="1.0" encoding="UTF-8"?>
<svg width="400px" height="400px" viewBox="0 0 400 400" version="1.1" xmlns="http://www.w3.org/2000/svg" xmlns:xlink="http://www.w3.org/1999/xlink">
    <!-- Generator: Sketch 45.2 (43514) - http://www.bohemiancoding.com/sketch -->
    <title>track_on</title>
    <desc>Created with Sketch.</desc>
    <defs></defs>
    <g id="Page-1" stroke="none" stroke-width="1" fill="none" fill-rule="evenodd">
        <g id="track_on">
            <g id="noun_579255_cc">
                <path d="M173.101235,130.518331 C150.944277,130.518331 133.287951,148.520859 133.287951,170.331615 C133.287951,192.488573 151.290479,210.144899 173.101235,210.144899 C195.258193,210.144899 212.914519,192.142371 212.914519,170.331615 C212.914519,148.174657 194.91199,130.518331 173.101235,130.518331 Z M173.101235,175.524652 C170.331615,175.524652 167.908198,173.101235 167.908198,170.331615 C167.908198,167.561995 170.331615,165.138578 173.101235,165.138578 C175.870855,165.138578 178.294272,167.561995 178.294272,170.331615 C178.294272,173.101235 175.870855,175.524652 173.101235,175.524652 Z" id="Shape"></path>
                <g id="Group" transform="translate(3.462025, 0.000000)" fill-rule="nonzero" fill="#000000">
                    <circle id="Oval" cx="170.331615" cy="169.985413" r="4.84683457"></circle>
                    <path d="M170.331615,2.07721482 C77.5493532,2.07721482 2.76961976,77.2031507 2.76961976,169.985413 C2.76961976,262.767674 77.8955556,337.547408 170.331615,337.547408 C262.767674,337.547408 337.89361,262.421472 337.89361,169.985413 C337.89361,77.5493532 262.767674,2.07721482 170.331615,2.07721482 Z M62.3164445,275.923368 L62.3164445,275.923368 C34.2740445,247.188563 18.6949334,209.452494 18.6949334,169.985413 C18.6949334,130.172129 33.927842,92.7822618 61.970242,64.0474569 L62.3164445,63.7012544 L64.0474569,65.4322667 L64.0474569,65.7784692 C36.6974618,93.8208692 21.4645531,130.864533 21.4645531,169.63921 C21.4645531,208.760089 36.6974618,245.457551 64.0474569,273.499951 L64.0474569,273.846153 L62.3164445,275.923368 Z M71.3177087,266.229699 L71.3177087,266.229699 C46.0449284,239.918311 31.8506272,205.990469 31.8506272,169.63921 C31.8506272,133.287951 45.698726,99.3601088 70.9715063,73.3949235 L71.3177087,73.0487211 L73.0487211,74.7797334 L73.0487211,75.1259359 C48.1221433,101.091121 34.620247,134.326558 34.620247,169.985413 C34.620247,205.644267 48.1221433,238.879704 73.0487211,264.152484 L73.0487211,264.498687 L71.3177087,266.229699 Z M81.3575803,255.843625 L81.3575803,255.843625 C58.8544198,232.301857 46.7373334,202.182242 46.7373334,169.985413 C46.7373334,137.788583 58.8544198,107.668968 81.3575803,84.4734026 L81.7037828,84.1272001 L83.4347952,85.8582124 L83.4347952,86.2044149 C61.6240396,109.053778 49.5069531,138.82719 49.5069531,169.985413 C49.5069531,201.489837 61.6240396,231.26325 83.4347952,253.76641 L83.4347952,254.112613 L81.3575803,255.843625 Z M91.397452,245.111348 L91.397452,245.111348 C72.0101137,224.3392 61.2778371,197.68161 61.2778371,169.985413 C61.2778371,141.943013 72.0101137,115.285422 91.397452,94.8594767 L91.7436544,94.5132742 L93.4746668,96.2442865 L93.4746668,96.590489 C74.7797334,116.670232 64.3936593,142.635417 64.3936593,169.985413 C64.3936593,197.335408 74.7797334,223.300593 93.4746668,243.380336 L93.4746668,243.726539 L91.397452,245.111348 Z M101.437324,234.725274 L101.437324,234.725274 C84.819605,217.068948 75.8183408,193.873383 75.8183408,169.985413 C75.8183408,146.097442 84.819605,123.248079 101.437324,105.591753 L101.783526,105.245551 L103.514538,106.976563 L103.514538,107.322766 C87.5892248,124.286687 78.9341631,146.789847 78.9341631,169.985413 C78.9341631,193.180978 87.5892248,215.684139 103.514538,232.64806 L103.514538,232.994262 L101.437324,234.725274 Z M111.477195,223.992998 L111.477195,223.992998 C97.6290964,209.106292 90.3588445,189.718953 90.3588445,169.985413 C90.3588445,149.905669 97.6290964,130.864533 111.130993,115.977827 L111.477195,115.631625 L113.208208,117.362637 L113.208208,117.70884 C100.052514,131.903141 93.1284643,150.598074 93.1284643,169.63921 C93.1284643,188.680346 100.398716,207.375279 113.208208,221.569581 L113.208208,221.915783 L111.477195,223.992998 Z M121.517067,213.260721 L121.517067,213.260721 C110.78479,201.143635 104.899348,185.564524 104.899348,169.63921 C104.899348,153.713896 110.78479,138.480988 121.170864,126.710104 L121.517067,126.363901 L123.248079,128.094914 L123.248079,128.441116 C113.208208,139.865798 107.668968,154.752504 107.668968,169.985413 C107.668968,185.218321 113.208208,200.105027 123.248079,211.529709 L123.248079,211.875911 L121.517067,213.260721 Z M170.331615,208.760089 C148.867062,208.760089 131.556938,191.449966 131.556938,169.985413 C131.556938,148.520859 148.867062,131.210736 170.331615,131.210736 C191.796168,131.210736 209.106292,148.520859 209.106292,169.985413 C209.106292,191.103763 191.796168,208.760089 170.331615,208.760089 Z M219.146163,213.260721 L217.415151,211.529709 L217.415151,211.183506 C227.455022,199.758825 232.994262,184.872119 232.994262,169.63921 C232.994262,154.406301 227.455022,139.519595 217.415151,128.094914 L217.415151,127.748711 L219.146163,126.017699 L219.492366,126.363901 C230.224642,138.480988 235.763882,153.713896 235.763882,169.63921 C235.763882,185.910726 229.87844,201.143635 219.146163,213.260721 L219.146163,213.260721 Z M229.186035,223.992998 L227.455022,222.261985 L227.455022,221.915783 C240.610716,207.721482 247.534766,189.026548 247.534766,169.985413 C247.534766,150.944277 240.264514,132.249343 227.455022,118.055042 L227.455022,117.70884 L229.186035,115.977827 L229.532237,116.32403 C243.034134,131.210736 250.304385,150.251872 250.304385,170.331615 C250.304385,189.718953 242.687931,209.106292 229.186035,223.992998 L229.186035,223.992998 Z M239.225906,234.725274 L237.494894,232.994262 L237.494894,232.64806 C253.420208,215.684139 262.075269,193.180978 262.075269,169.985413 C262.075269,146.789847 253.420208,124.286687 237.494894,107.322766 L237.494894,106.976563 L239.225906,105.245551 L239.572109,105.591753 C255.843625,123.248079 265.191092,146.097442 265.191092,169.985413 C264.844889,193.873383 255.843625,216.722746 239.225906,234.725274 L239.225906,234.725274 Z M249.265778,245.111348 L247.534766,243.380336 L247.534766,243.034134 C266.575902,223.300593 276.961976,197.335408 276.961976,169.985413 C276.961976,142.635417 266.575902,116.670232 247.880968,96.590489 L247.880968,96.2442865 L249.611981,94.5132742 L249.958183,94.8594767 C269.345521,115.285422 280.077798,141.943013 280.077798,169.985413 C279.385393,198.027813 268.653116,224.685403 249.265778,245.111348 L249.265778,245.111348 Z M259.30565,255.843625 L257.574637,254.112613 L257.574637,253.76641 C279.385393,230.917047 291.502479,201.143635 291.502479,169.985413 C291.502479,138.480988 279.385393,108.707575 257.574637,86.2044149 L257.574637,85.8582124 L259.30565,84.1272001 L259.651852,84.4734026 C281.80881,107.668968 294.272099,138.134785 294.272099,169.985413 C294.272099,201.83604 281.80881,232.301857 259.30565,255.843625 L259.30565,255.843625 Z M269.345521,266.229699 L267.614509,264.498687 L267.614509,264.152484 C292.194884,238.533502 306.042983,204.951862 306.042983,169.63921 C306.042983,134.326558 292.541087,100.744919 267.614509,75.1259359 L267.614509,74.7797334 L269.345521,73.0487211 L269.691724,73.3949235 C294.964504,99.3601088 308.812603,133.634153 308.812603,169.63921 C308.812603,205.644267 294.618302,240.264514 269.345521,266.229699 L269.345521,266.229699 Z M278.692988,275.577166 L278.692988,275.577166 L276.615773,273.846153 L276.615773,273.499951 C303.965768,245.457551 319.198677,208.413887 319.198677,169.63921 C319.198677,130.864533 303.965768,93.8208692 276.615773,65.7784692 L276.615773,65.4322667 L278.346786,63.7012544 L278.692988,64.0474569 C306.389186,92.4360594 321.968297,130.172129 321.968297,169.985413 C321.968297,209.452494 306.389186,247.188563 278.692988,275.577166 Z" id="Shape"></path>
                </g>
            </g>
            <path d="M366.314015,256 L289.685985,256 C271.022129,256 256,271.173867 256,289.685985 L256,366.314015 C256,384.977871 271.173867,400 289.685985,400 L366.314015,400 C384.977871,400 400,384.826133 400,366.314015 L400,289.685985 C400,271.173867 384.826133,256 366.314015,256 Z M365.70706,320.185458 L328.531085,357.361433 C326.255005,359.637513 323.220232,360.851423 320.185458,360.851423 C317.150685,360.851423 313.964173,359.637513 311.839831,357.361433 L290.444679,335.96628 C285.74078,331.262381 285.74078,323.827187 290.444679,319.123288 C295.148577,314.419389 302.583772,314.419389 307.287671,319.123288 L320.337197,332.172813 L349.167545,303.342466 C353.871444,298.638567 361.306639,298.638567 366.010537,303.342466 C370.25922,308.046365 370.25922,315.633298 365.70706,320.185458 Z" id="Shape" fill="#7ED321" fill-rule="nonzero"></path>
        </g>
    </g>
</svg>