<?xml version="1.0" encoding="UTF-8"?>
<svg width="30px" height="30px" viewBox="0 0 30 30" version="1.1" xmlns="http://www.w3.org/2000/svg" xmlns:xlink="http://www.w3.org/1999/xlink">
    <!-- Generator: Sketch 44.1 (41455) - http://www.bohemiancoding.com/sketch -->
    <title>Group 5</title>
    <desc>Created with Sketch.</desc>
    <defs>
        <linearGradient x1="50%" y1="0%" x2="50%" y2="100%" id="linearGradient-1">
            <stop stop-color="#9030CE" offset="0%"></stop>
            <stop stop-color="#FF963C" offset="100%"></stop>
        </linearGradient>
        <circle id="path-2" cx="15" cy="15" r="15"></circle>
    </defs>
    <g id="Page-1" stroke="none" stroke-width="1" fill="none" fill-rule="evenodd">
        <g id="Group-5">
            <g id="Fill-1">
                <mask id="mask-3" fill="white">
                    <use xlink:href="#path-2"></use>
                </mask>
                <use id="Mask" fill="url(#linearGradient-1)" xlink:href="#path-2"></use>
                <path d="M14.7741046,10.2084959 C12.3028487,10.2084959 10.2994999,12.2569747 10.2994999,14.7839013 C10.2994999,17.3108279 12.3028487,19.3593066 14.7741046,19.3593066 C17.2453605,19.3593066 19.2487093,17.3108279 19.2487093,14.7839013 C19.2487093,13.5704283 18.7772791,12.4066561 17.9381279,11.5486011 C17.0989768,10.6905462 15.9608436,10.2084959 14.7741046,10.2084959 L14.7741046,10.2084959 Z M14.7741046,17.7558049 C13.1689278,17.7558049 11.867675,16.4252383 11.867675,14.7839013 C11.867675,13.1425643 13.1689278,11.8119977 14.7741046,11.8119977 C16.3792814,11.8119977 17.6805343,13.1425643 17.6805343,14.7839013 C17.6805343,16.4252383 16.3792814,17.7558049 14.7741046,17.7558049 L14.7741046,17.7558049 Z" id="Shape" fill="#FFFFFF" fill-rule="nonzero" mask="url(#mask-3)"></path>
                <ellipse id="Oval" fill="#FFFFFF" fill-rule="nonzero" mask="url(#mask-3)" cx="19.4255711" cy="10.0397063" rx="1.04348488" ry="1.06699176"></ellipse>
                <path d="M23.0335528,8.95462992 C22.5807192,7.75885639 21.6561717,6.81348129 20.4867422,6.35044664 C19.8093452,6.09039424 19.0937072,5.94974969 18.3702954,5.9345007 C17.4388231,5.89230328 17.1440533,5.88024688 14.78,5.88024688 C12.4159467,5.88024688 12.1152815,5.88024688 11.1897046,5.9345007 C10.4662928,5.94974969 9.75065483,6.09039424 9.07325781,6.35044664 C7.90382835,6.81348129 6.97928079,7.75885639 6.52644724,8.95462992 C6.27212405,9.64728686 6.13457804,10.3790462 6.119665,11.1187545 C6.07839723,12.0712104 6.06660645,12.3726205 6.06660645,14.7899295 C6.06660645,17.2072385 6.06660645,17.5146768 6.119665,18.4611045 C6.13457804,19.2008128 6.27212405,19.9325721 6.52644724,20.6252291 C6.97928079,21.8210026 7.90382835,22.7663777 9.07325781,23.2294124 C9.74889319,23.4997654 10.4645862,23.6506132 11.1897046,23.6754993 C12.1211769,23.7176967 12.4159467,23.7297531 14.78,23.7297531 C17.1440533,23.7297531 17.4447185,23.7297531 18.3702954,23.6754993 C19.0937072,23.6602503 19.8093452,23.5196058 20.4867422,23.2595534 C21.6561717,22.7965187 22.5807192,21.8511436 23.0335528,20.6553701 C23.2878759,19.9627131 23.425422,19.2309538 23.440335,18.4912455 C23.4816028,17.5387896 23.4933936,17.2373795 23.4933936,14.8200705 C23.4933936,12.4027615 23.4933936,12.0953232 23.440335,11.1488955 C23.4287707,10.3990363 23.2911711,9.65679628 23.0335528,8.95462992 L23.0335528,8.95462992 Z M21.8544738,18.3887661 C21.8494253,18.9589592 21.7476959,19.5239364 21.5538087,20.0585781 C21.2603601,20.8371186 20.6585912,21.4524437 19.8972027,21.7525029 C19.3799204,21.9487134 18.8335455,22.0527019 18.2818645,22.0599412 C17.3621829,22.1021386 17.1027856,22.114195 14.7446276,22.114195 C12.3864697,22.114195 12.1447585,22.114195 11.2073907,22.0599412 C10.6557098,22.0527019 10.1093349,21.9487134 9.59205255,21.7525029 C8.82801534,21.4545144 8.22368697,20.8387635 7.92955121,20.0585781 C7.73766335,19.5296428 7.63596584,18.9709595 7.62888607,18.4068507 C7.58761831,17.4664512 7.57582752,17.2012103 7.57582752,14.7899295 C7.57582752,12.3786487 7.57582752,12.1314924 7.62888607,11.1730083 C7.63393453,10.6028152 7.73566393,10.037838 7.92955121,9.5031963 C8.22368697,8.72301091 8.82801534,8.10725995 9.59205255,7.80927153 C10.1093349,7.61306096 10.6557098,7.50907248 11.2073907,7.50183323 C12.1270723,7.45963581 12.3864697,7.44757941 14.7446276,7.44757941 C17.1027856,7.44757941 17.3444967,7.44757941 18.2818645,7.50183323 C18.8335455,7.50907248 19.3799204,7.61306096 19.8972027,7.80927153 C20.6585912,8.10933067 21.2603601,8.72465582 21.5538087,9.5031963 C21.7456965,10.0321316 21.847394,10.5908149 21.8544738,11.1549237 C21.8957416,12.0953232 21.9075323,12.3605641 21.9075323,14.7718449 C21.9075323,17.1831257 21.9075323,17.4423384 21.8662646,18.3887661 L21.8544738,18.3887661 Z" id="Shape" fill="#FFFFFF" fill-rule="nonzero" mask="url(#mask-3)"></path>
            </g>
        </g>
    </g>
</svg>